#N canvas 157 100 627 534 10;
#X obj 42 170 oscparse;
#X obj 290 115 netreceive -u -b;
#X msg 290 60 listen 5000;
#X msg 302 88 listen 0;
#X text 391 87 stop listening;
#X text 287 36 packets from network;
#X text 392 60 listen on port 5000;
#X obj 42 193 print \$1;
#X floatatom 141 293 5 0 0 0 - - -, f 5;
#X obj 143 222 unpack s 0;
#X msg 97 82 \; pd dsp \$1;
#X floatatom 42 96 5 0 0 0 - - -, f 5;
#X obj 96 60 tgl 15 0 empty empty empty 17 7 0 10 -262144 -1 -1 1 1
;
#X msg 286 283 start;
#X msg 302 331 stop;
#X obj 471 353 bng 15 250 50 0 empty empty empty 17 7 0 10 -262144
-1 -1;
#X msg 384 253 open \$1;
#X obj 437 134 tgl 15 0 empty empty empty 17 7 0 10 -262144 -1 -1 1
1;
#X msg 473 201 open jump.wav;
#X obj 356 445 dac~ 1 2;
#X obj 104 13 loadbang;
#X obj 497 98 loadbang;
#X obj 356 445 dac~ 1 2;
#X text 459 310 (Efecto de sonido mono);
#X obj 395 312 readsf~ 1;
#X obj 356 445 dac~ 1;
#X obj 356 445 dac~ 1 2;
#X obj 133 349 moses 225;
#X connect 0 0 7 0;
#X connect 0 0 9 0;
#X connect 1 0 0 0;
#X connect 2 0 1 0;
#X connect 3 0 1 0;
#X connect 8 0 27 0;
#X connect 9 1 8 0;
#X connect 12 0 11 0;
#X connect 12 0 10 0;
#X connect 13 0 24 0;
#X connect 14 0 24 0;
#X connect 15 0 18 0;
#X connect 16 0 24 0;
#X connect 17 0 18 0;
#X connect 18 0 16 0;
#X connect 20 0 12 0;
#X connect 20 0 2 0;
#X connect 21 0 17 0;
#X connect 24 0 22 0;
#X connect 24 1 15 0;
#X connect 24 1 22 1;
#X connect 27 1 13 0;
